<svg width="64" height="64" viewBox="0 0 64 64" fill="none" xmlns="http://www.w3.org/2000/svg">
<g filter="url(#filter0_d_375_161)">
<rect x="8" y="8" width="48" height="48" rx="24" fill="#EEEEEE"/>
<rect x="9" y="9" width="46" height="46" rx="23" stroke="white" stroke-width="2"/>
</g>
<path d="M28.2627 16.2151C28.5651 16.2151 28.8551 16.3352 29.069 16.5491C29.2828 16.7629 29.403 17.053 29.403 17.3554V21.1564C29.403 21.4588 29.2828 21.7488 29.069 21.9627C28.8551 22.1765 28.5651 22.2967 28.2627 22.2967C27.9602 22.2967 27.6702 22.1765 27.4564 21.9627C27.2425 21.7488 27.1224 21.4588 27.1224 21.1564V17.3554C27.1224 17.053 27.2425 16.7629 27.4564 16.5491C27.6702 16.3352 27.9602 16.2151 28.2627 16.2151ZM20.9952 19.2103C21.209 18.9967 21.4988 18.8768 21.801 18.8768C22.1032 18.8768 22.393 18.9967 22.6068 19.2103L25.2675 21.871C25.3795 21.9753 25.4694 22.1012 25.5317 22.2411C25.594 22.381 25.6275 22.532 25.6302 22.6851C25.6329 22.8382 25.6048 22.9903 25.5474 23.1323C25.4901 23.2743 25.4047 23.4032 25.2964 23.5115C25.1882 23.6198 25.0592 23.7052 24.9172 23.7625C24.7752 23.8199 24.6231 23.848 24.47 23.8453C24.3169 23.8426 24.1659 23.8091 24.026 23.7468C23.8861 23.6845 23.7603 23.5946 23.6559 23.4826L20.9952 20.8219C20.7816 20.6081 20.6617 20.3183 20.6617 20.0161C20.6617 19.7139 20.7816 19.4241 20.9952 19.2103ZM35.5301 19.2103C35.7437 19.4241 35.8636 19.7139 35.8636 20.0161C35.8636 20.3183 35.7437 20.6081 35.5301 20.8219L32.8695 23.4826C32.7651 23.5946 32.6392 23.6845 32.4993 23.7468C32.3594 23.8091 32.2084 23.8426 32.0553 23.8453C31.9022 23.848 31.7501 23.8199 31.6081 23.7625C31.4662 23.7052 31.3372 23.6198 31.2289 23.5115C31.1206 23.4032 31.0353 23.2743 30.9779 23.1323C30.9205 22.9903 30.8924 22.8382 30.8951 22.6851C30.8978 22.532 30.9313 22.381 30.9936 22.2411C31.0559 22.1012 31.1458 21.9753 31.2578 21.871L33.9185 19.2103C34.1323 18.9967 34.4222 18.8768 34.7243 18.8768C35.0265 18.8768 35.3163 18.9967 35.5301 19.2103ZM18 26.4777C18 26.1753 18.1201 25.8853 18.334 25.6714C18.5478 25.4576 18.8379 25.3375 19.1403 25.3375H22.9413C23.2437 25.3375 23.5337 25.4576 23.7476 25.6714C23.9614 25.8853 24.0816 26.1753 24.0816 26.4777C24.0816 26.7802 23.9614 27.0702 23.7476 27.2841C23.5337 27.4979 23.2437 27.618 22.9413 27.618H19.1403C18.8379 27.618 18.5478 27.4979 18.334 27.2841C18.1201 27.0702 18 26.7802 18 26.4777ZM27.1224 27.5983C27.1224 25.8848 29.1323 24.9604 30.4323 26.0764L43.2963 37.1023C44.6799 38.2882 43.8923 40.5551 42.0724 40.6296L36.2341 40.8622C35.6062 40.8865 35.0163 41.1663 34.5966 41.633L30.6223 46.0756C29.3954 47.4485 27.1224 46.5789 27.1224 44.7377V27.5998V27.5983Z" fill="#383838"/>
<defs>
<filter id="filter0_d_375_161" x="0" y="0" width="64" height="64" filterUnits="userSpaceOnUse" color-interpolation-filters="sRGB">
<feFlood flood-opacity="0" result="BackgroundImageFix"/>
<feColorMatrix in="SourceAlpha" type="matrix" values="0 0 0 0 0 0 0 0 0 0 0 0 0 0 0 0 0 0 127 0" result="hardAlpha"/>
<feMorphology radius="2" operator="dilate" in="SourceAlpha" result="effect1_dropShadow_375_161"/>
<feOffset/>
<feGaussianBlur stdDeviation="3"/>
<feComposite in2="hardAlpha" operator="out"/>
<feColorMatrix type="matrix" values="0 0 0 0 0 0 0 0 0 0 0 0 0 0 0 0 0 0 0.42 0"/>
<feBlend mode="normal" in2="BackgroundImageFix" result="effect1_dropShadow_375_161"/>
<feBlend mode="normal" in="SourceGraphic" in2="effect1_dropShadow_375_161" result="shape"/>
</filter>
</defs>
</svg>
