<svg width="64" height="64" viewBox="0 0 64 64" fill="none" xmlns="http://www.w3.org/2000/svg">
<g filter="url(#filter0_d_375_165)">
<rect x="8" y="8" width="48" height="48" rx="24" fill="#EEEEEE"/>
<rect x="9" y="9" width="46" height="46" rx="23" stroke="white" stroke-width="2"/>
</g>
<path fill-rule="evenodd" clip-rule="evenodd" d="M20.5908 39.3488C20.245 39.0085 19.9707 38.6045 19.7835 38.1598C19.5963 37.7152 19.5 37.2386 19.5 36.7573C19.5 36.2761 19.5963 35.7995 19.7835 35.3548C19.9707 34.9102 20.245 34.5062 20.5908 34.1659L29.3672 25.5274L39.8998 35.8931L35.8746 39.8533H41.5406C41.8698 39.8533 42.1855 39.982 42.4182 40.211C42.651 40.4401 42.7818 40.7508 42.7818 41.0748C42.7818 41.3987 42.651 41.7094 42.4182 41.9385C42.1855 42.1676 41.8698 42.2963 41.5406 42.2963H25.1298C24.1425 42.2964 23.1956 41.9106 22.4973 41.2238L20.5896 39.3476L20.5908 39.3488ZM41.6535 34.1659L43.4098 32.4375C44.1079 31.7503 44.5 30.8183 44.5 29.8466C44.5 28.8749 44.1079 27.943 43.4098 27.2558L38.1435 22.0729C37.4452 21.3859 36.4983 21 35.511 21C34.5236 21 33.5767 21.3859 32.8784 22.0729L31.1234 23.8001L41.6548 34.1659H41.6535Z" fill="#383838"/>
<defs>
<filter id="filter0_d_375_165" x="0" y="0" width="64" height="64" filterUnits="userSpaceOnUse" color-interpolation-filters="sRGB">
<feFlood flood-opacity="0" result="BackgroundImageFix"/>
<feColorMatrix in="SourceAlpha" type="matrix" values="0 0 0 0 0 0 0 0 0 0 0 0 0 0 0 0 0 0 127 0" result="hardAlpha"/>
<feMorphology radius="2" operator="dilate" in="SourceAlpha" result="effect1_dropShadow_375_165"/>
<feOffset/>
<feGaussianBlur stdDeviation="3"/>
<feComposite in2="hardAlpha" operator="out"/>
<feColorMatrix type="matrix" values="0 0 0 0 0 0 0 0 0 0 0 0 0 0 0 0 0 0 0.42 0"/>
<feBlend mode="normal" in2="BackgroundImageFix" result="effect1_dropShadow_375_165"/>
<feBlend mode="normal" in="SourceGraphic" in2="effect1_dropShadow_375_165" result="shape"/>
</filter>
</defs>
</svg>
